<svg xmlns="http://www.w3.org/2000/svg" version="1.1" xmlns:xlink="http://www.w3.org/1999/xlink" width="512" height="512" x="0" y="0" viewBox="0 0 48 48" style="enable-background:new 0 0 512 512" xml:space="preserve" class=""><g><path fill="#eff3f9" d="M38 15h-.069c-.493-3.945-3.852-7-7.931-7a7.946 7.946 0 0 0-3.3.719C25.052 5.9 22.002 4 18.5 4A9.5 9.5 0 0 0 9 13.5c0 .527.054 1.04.136 1.544A9 9 0 0 0 10 33h28c4.971 0 9-4.029 9-9s-4.029-9-9-9z" opacity="1" data-original="#eff3f9" class=""></path><path fill="#cfe0f3" d="M46.959 23.195A8.996 8.996 0 0 1 39 28h-2.35c-.826-2.327-3.043-4-5.65-4h-7.343l-.243-.243A5.96 5.96 0 0 0 19.172 22H15c-3.309 0-6 2.691-6 6a8.997 8.997 0 0 1-7.962-4.809A9 9 0 0 0 10 33h28a9 9 0 0 0 9-9c0-.272-.017-.539-.041-.805z" opacity="1" data-original="#cfe0f3"></path><path fill="#ff8200" d="M13 41.858V28a2 2 0 0 1 2-2h4.172a2 2 0 0 1 1.414.586l.828.828a2 2 0 0 0 1.414.586H31a2 2 0 0 1 2 2v11.858z" opacity="1" data-original="#ff8200"></path><path fill="#ffc343" d="M17.668 32h16.33a2 2 0 0 1 1.897 2.632l-2.667 8A2 2 0 0 1 31.331 44H15.002a2 2 0 0 1-1.897-2.632l2.667-8A2 2 0 0 1 17.669 32z" opacity="1" data-original="#ffc343"></path><g fill="#08105e"><path d="M38.777 14.035A9.002 9.002 0 0 0 30 7c-.995 0-1.969.164-2.904.486C25.139 4.699 21.92 3 18.5 3 12.71 3 8 7.71 8 13.5c0 .233.009.463.025.694A9.961 9.961 0 0 0 0 24a9.968 9.968 0 0 0 8.892 9.934.999.999 0 0 0 1.102-.886 1 1 0 0 0-.886-1.103A7.97 7.97 0 0 1 2 23.999a7.97 7.97 0 0 1 7.235-7.964 1 1 0 0 0 .889-1.173A7.569 7.569 0 0 1 10 13.499c0-4.687 3.813-8.5 8.5-8.5 3.001 0 5.812 1.619 7.337 4.225a1 1 0 0 0 1.278.405A6.912 6.912 0 0 1 30 8.999a6.995 6.995 0 0 1 6.937 6.123c.062.501.558.877 1.063.877 4.411 0 8 3.589 8 8 0 3.758-2.661 7.047-6.327 7.821a1 1 0 0 0-.771 1.185.997.997 0 0 0 1.186.772c4.585-.969 7.913-5.081 7.913-9.778 0-5.232-4.039-9.539-9.223-9.965z" fill="#08105e" opacity="1" data-original="#08105e"></path><path d="M34 31v-1c0-1.654-1.346-3-3-3h-8.172c-.263 0-.521-.107-.707-.293l-.828-.828A2.978 2.978 0 0 0 19.172 25H15c-1.654 0-3 1.346-3 3v13.93l.015-.01c-.02.648.158 1.288.553 1.834A2.967 2.967 0 0 0 15.002 45h16.33a2.996 2.996 0 0 0 2.846-2.052l2.666-8a2.966 2.966 0 0 0-.412-2.703A2.97 2.97 0 0 0 34 30.999zm-19-4h4.172c.263 0 .521.107.707.293l.828.828c.566.567 1.32.879 2.121.879H31c.552 0 1 .449 1 1v1H17.668a2.996 2.996 0 0 0-2.846 2.052L14 35.519V28c0-.551.448-1 1-1zm19.947 7.316-2.666 8a1.001 1.001 0 0 1-.949.684h-16.33a.99.99 0 0 1-.812-.416.993.993 0 0 1-.138-.901l2.666-8c.137-.409.519-.684.949-.684h16.33a.99.99 0 0 1 .812.416c.19.264.24.592.138.901z" fill="#08105e" opacity="1" data-original="#08105e"></path></g></g></svg>
